# xmcd CD database file
#
# Track frame offsets:
#	150
#	22009
#	34251
#	46647
#	57032
#	68602
#	91699
#	107723
#	130311
#	147529
#	164588
#	181064
#	200555
#	218619
#	236739
#
# Disc length: 3364 seconds
#
# Revision: 0
# Processed by: cddbd v1.5.2PL0 Copyright (c) Steve Scherf et al.
# Submitted via: CDex 1.79
#
DISCID=ce0d220f
DTITLE=varios - Talent Blues condensed - cd 1
DYEAR=1900
DGENRE=Blues
TTITLE0=Blues in my blood- Greg A Smith
TTITLE1=Crawling king snake - John Lee Hooker
TTITLE2=My baby is gone - Lighnin Hopkins
TTITLE3=Ain't that lovin ' you baby - Jimmy Reed
TTITLE4=Ray Charles blues - Ray Charles
TTITLE5=The Angels laid him away - Mississippi John Hurt
TTITLE6=Song for Frank - Skeleton Crew
TTITLE7=Lend me your love - Memphis slim
TTITLE8=Blues before sunrise - John Lee Hooker
TTITLE9=Say Boss man - Bo Diddley
TTITLE10=Cherry red - Mike Bloomfield
TTITLE11=She's mine - Roberto Ciotti 
TTITLE12=Maybe the last time - Little Walter and Otis Rush
TTITLE13=Hoodoo blues - Lightnin Slim
TTITLE14=Come here mama - Rufus Thomas
EXTD=
EXTT0=
EXTT1=
EXTT2=
EXTT3=
EXTT4=
EXTT5=
EXTT6=
EXTT7=
EXTT8=
EXTT9=
EXTT10=
EXTT11=
EXTT12=
EXTT13=
EXTT14=
PLAYORDER=
